<?xml version="1.0" standalone="no"?>
<!DOCTYPE svg PUBLIC "-//W3C//DTD SVG 20010904//EN"
        "http://www.w3.org/TR/2001/REC-SVG-20010904/DTD/svg10.dtd">
<svg version="1.0" xmlns="http://www.w3.org/2000/svg"
     width="724.000000pt" height="376.000000pt" viewBox="0 0 724.000000 376.000000"
     preserveAspectRatio="xMidYMid meet">

    <g transform="translate(0.000000,376.000000) scale(0.100000,-0.100000)"
       fill="#fff" stroke="none">
        <path d="M4088 3542 l-67 -37 -45 24 c-36 20 -49 23 -68 14 -13 -6 -92 -60
-177 -121 -135 -97 -157 -109 -175 -100 -12 6 -73 44 -137 84 -162 101 -197
118 -214 104 -8 -6 -68 -90 -135 -186 -67 -95 -125 -176 -129 -178 -4 -3 -24
15 -45 39 -20 25 -42 45 -49 45 -31 0 -407 -528 -407 -571 0 -35 37 -21 117
44 43 34 141 111 218 171 185 144 301 243 407 345 57 55 89 79 92 70 3 -8 17
-75 33 -149 33 -164 43 -178 151 -205 79 -19 92 -32 92 -96 0 -44 35 -73 131
-104 46 -15 129 -45 183 -67 160 -63 157 -51 -57 270 -82 122 -148 224 -146
226 40 38 455 256 488 256 14 0 27 -13 40 -37 11 -21 37 -62 60 -91 22 -30 76
-125 121 -213 l81 -159 59 0 c100 0 101 -2 133 -133 25 -99 32 -116 51 -121
89 -22 513 -32 533 -12 9 8 -30 60 -128 171 -96 110 -131 135 -184 135 -50 0
-68 20 -265 283 -170 227 -164 222 -250 192 -71 -25 -83 -21 -125 43 -51 78
-75 102 -99 102 -12 -1 -51 -18 -88 -38z"/>
        <path d="M280 1741 c-167 -51 -259 -228 -205 -392 47 -141 226 -231 377 -189
79 22 170 106 192 177 6 18 1 23 -36 35 l-43 15 -30 -50 c-35 -59 -84 -88
-156 -95 -132 -13 -230 95 -216 235 13 124 124 203 252 179 44 -9 113 -68 132
-114 11 -28 17 -32 36 -26 79 25 81 29 36 98 -69 103 -224 162 -339 127z"/>
        <path d="M720 1450 l0 -300 45 0 45 0 0 140 0 140 155 0 155 0 0 -140 0 -140
45 0 45 0 0 300 0 300 -45 0 -44 0 -3 -112 -3 -113 -150 0 -150 0 -3 113 -3
112 -44 0 -45 0 0 -300z"/>
        <path d="M1423 1467 c-62 -155 -115 -290 -119 -299 -5 -16 0 -18 40 -18 47 0
47 0 68 50 l21 50 149 0 149 0 21 -50 21 -50 49 0 c27 0 48 4 46 9 -1 5 -55
140 -118 300 l-115 291 -50 0 -50 0 -112 -283z m267 -118 c0 -5 -49 -9 -110
-9 -60 0 -110 2 -110 4 0 3 71 188 102 266 9 23 15 11 64 -113 30 -76 54 -143
54 -148z"/>
        <path d="M1950 1450 l0 -300 205 0 205 0 0 45 0 45 -155 0 -155 0 0 255 0 255
-50 0 -50 0 0 -300z"/>
        <path d="M2440 1450 l0 -300 205 0 205 0 0 45 0 45 -155 0 -155 0 0 95 0 95
115 0 115 0 0 45 0 45 -115 0 -115 0 0 70 0 70 155 0 155 0 0 45 0 45 -205 0
-205 0 0 -300z"/>
        <path d="M2890 1705 l0 -45 105 0 105 0 0 -255 0 -255 50 0 50 0 0 255 0 255
105 0 105 0 0 45 0 45 -260 0 -260 0 0 -45z"/>
        <path d="M3710 1450 l0 -300 166 0 c149 0 170 2 203 21 79 44 111 140 72 217
-12 23 -29 46 -39 51 -44 26 -44 26 -21 70 43 83 11 179 -74 220 -37 18 -62
21 -175 21 l-132 0 0 -300z m291 181 c27 -34 25 -82 -6 -111 -23 -22 -35 -24
-108 -25 l-82 0 -3 84 -3 83 91 -3 c82 -4 94 -6 111 -28z m43 -247 c25 -26 33
-64 20 -99 -13 -32 -59 -45 -164 -45 l-100 0 0 85 0 85 109 0 c104 0 109 -1
135 -26z"/>
        <path d="M4431 1729 c-160 -63 -237 -262 -161 -412 117 -233 468 -216 559 27
54 145 -8 305 -145 372 -77 38 -178 43 -253 13z m192 -83 c144 -60 167 -286
37 -372 -59 -39 -150 -44 -210 -12 -61 33 -100 97 -107 175 -4 50 -1 65 24
113 23 46 37 60 82 83 61 30 122 35 174 13z"/>
        <path d="M4910 1705 l0 -45 105 0 105 0 0 -255 0 -255 50 0 50 0 0 255 0 255
105 0 105 0 0 45 0 45 -260 0 -260 0 0 -45z"/>
        <path d="M5716 1741 c-4 -6 -184 -453 -233 -578 -4 -9 9 -13 44 -13 l49 0 18
50 18 50 153 0 153 0 18 -50 18 -50 48 0 c26 0 48 3 48 7 0 5 -53 140 -117
300 l-117 293 -47 0 c-26 0 -50 -4 -53 -9z m84 -196 c18 -44 43 -108 56 -142
l23 -63 -109 0 c-90 0 -110 3 -110 15 0 15 102 277 106 272 1 -1 17 -38 34
-82z"/>
        <path d="M6237 1735 c-96 -34 -145 -143 -101 -226 20 -40 96 -75 206 -95 102
-19 146 -39 154 -69 10 -39 -6 -66 -49 -86 -74 -33 -170 -20 -241 34 l-33 26
-32 -33 -32 -33 38 -26 c80 -55 132 -72 223 -72 75 0 91 3 132 27 61 36 92 87
92 150 0 91 -48 127 -213 162 -139 30 -163 44 -159 94 2 31 9 40 38 55 45 24
143 18 199 -11 l39 -21 27 35 c15 20 25 36 24 37 -2 1 -17 9 -34 18 -83 46
-204 61 -278 34z"/>
        <path d="M6690 1450 l0 -300 51 0 50 0 -3 140 -3 140 153 0 152 0 0 -140 0
-140 45 0 45 0 0 300 0 300 -45 0 -44 0 -3 -112 -3 -113 -147 -3 -148 -3 0
116 0 115 -50 0 -50 0 0 -300z"/>
    </g>
</svg>
